# AST/ASF file generated using VICON BodyLanguage
# -----------------------------------------------
:version 1.10
:name VICON
:units
  mass 1.0
  length 0.45
  angle deg
:documentation
   .ast/.asf automatically generated from VICON data using
   VICON BodyBuilder and BodyLanguage model FoxedUp or BRILLIANT.MOD
:root
   order TX TY TZ RX RY RZ
   axis XYZ
   position 0 0 0  
   orientation 0 -0 0 
:bonedata
  begin
     id 1 
     name lhipjoint
     direction 0.515797 -0.759363 0.396637 
     length 2.47888 
     axis 0 -0 0  XYZ
  end
  begin
     id 2 
     name lfemur
     direction 0.34202 -0.939693 0  
     length 6.81885  
     axis 0 -0 20  XYZ
    dof rx ry rz
    limits (-160.0 20.0)
           (-70.0 70.0)
           (-60.0 70.0)
  end
  begin
     id 3 
     name ltibia
     direction 0.342037 -0.939687 0   
     length 7.89258   
     axis 0 -0 20   XYZ
    dof rx
    limits (-10.0 170.0)
  end
  begin
     id 4 
     name lfoot
     direction 0.173497 -0.476678 0.861787   
     length 2.51543   
     axis -90 -1.13533e-015 20   XYZ
    dof rx rz
    limits (-45.0 90.0)
           (-70.0 20.0)
  end
  begin
     id 5 
     name ltoes
     direction 1.53564e-011 -4.21897e-011 1   
     length 1.21388   
     axis -90 -1.13533e-015 20   XYZ
    dof rx
    limits (-90.0 20.0)
  end
  begin
     id 6 
     name rhipjoint
     direction -0.489454 -0.772941 0.403729   
     length 2.43534  
     axis 0 -0 0  XYZ 
  end
  begin
     id 7 
     name rfemur
     direction -0.34202 -0.939693 0   
     length 7.10357   
     axis 0 -0 -20   XYZ
    dof rx ry rz
    limits (-160.0 20.0)
           (-70.0 70.0)
           (-70.0 60.0)
  end
  begin
     id 8 
     name rtibia
     direction -0.34202 -0.939693 0   
     length 9.16127   
     axis 0 -0 -20   XYZ
    dof rx
    limits (-10.0 170.0)
 end
 begin
     id 9 
     name rfoot
     direction -0.270974 -0.748671 0.605033   
     length 1.74894  
     axis -90 1.13533e-015 -20   XYZ
    dof rx rz
    limits (-45.0 90.0)
           (-20.0 70.0)
  end
  begin
     id 10 
     name rtoes
     direction -1.53557e-011 -4.21759e-011 1   
     length 0.787585   
     axis -90 1.13533e-015 -20   XYZ
    dof rx
    limits (-90.0 20.0)
  end
  begin
     id 11 
     name lowerback
     direction -0.0140249 0.999561 0.0260968   
     length 2.16963   
     axis 0 -0 0   XYZ
    dof rx ry rz
    limits (-20.0 45.0)
           (-30.0 30.0)
           (-30.0 30.0)
  end
  begin
     id 12 
     name upperback
     direction 0.00860018 0.999959 -0.002711   
     length 2.1726   
     axis 0 -0 0   XYZ
    dof rx ry rz
    limits (-20.0 45.0)
           (-30.0 30.0)
           (-30.0 30.0)
  end
  begin
     id 13 
     name thorax
     direction 0.015211 0.999782 -0.0143191   
     length 2.17061   
     axis 0 -0 0   XYZ
    dof rx ry rz
    limits (-20.0 45.0)
           (-30.0 30.0)
           (-30.0 30.0)
  end
  begin
     id 14 
     name lowerneck
     direction -0.0140143 0.999447 0.030145   
     length 2.26749   
     axis 0 -0 0   XYZ
    dof rx ry rz
    limits (-20.0 45.0)
           (-30.0 30.0)
           (-30.0 30.0)
  end
  begin
     id 15 
     name upperneck
     direction 0.118062 0.961438 -0.248392   
     length 2.22728   
     axis 0 -0 0   XYZ
    dof rx ry rz
    limits (-20.0 45.0)
           (-30.0 30.0)
           (-30.0 30.0)
  end
  begin
     id 16
     name head
     direction 0.0431885 0.9954 -0.085514  
     length 2.28786  
     axis 0 -0 0   XYZ
    dof rx ry rz
    limits (-20.0 45.0)
           (-30.0 30.0)
           (-30.0 30.0)
  end
  begin
     id 17 
     name lclavicle
     direction 0.912126 0.409548 0.0172323  
     length 4.31571  
     axis 0 -0 0   XYZ
    dof ry rz
    limits (-20.0 10.0)
           (0.0 20.0)
  end
  begin
     id 18 
     name lhumerus
     direction 1 -4.48977e-011 1.93091e-027   
     length 5.13658   
     axis 180 -30 -90   XYZ
    dof rx ry rz
    limits (-60.0 90.0)
           (-90.0 90.0)
           (-90.0 90.0)
  end
  begin
     id 19
     name lradius
     direction 1 -4.48916e-011 6.84018e-027   
     length 3.22473   
     axis 180 -30 -90   XYZ
    dof rx
    limits (-10.0 170.0)
  end
  begin
     id 20
     name lwrist
     direction 1 -4.48987e-011 7.01981e-027   
     length 1.61236   
     axis -4.37994e-015 90 90   XYZ
    dof ry
    limits (-180.0 0.0)
 end
  begin
     id 21 
     name lhand
     direction 1 -4.49037e-011 1.40335e-026   
     length 0.936406   
     axis -8.96029e-015 90 90   XYZ
    dof rx rz
    limits (-90.0 90.0)
           (-45.0 45.0)
  end
  begin
     id 22 
     name lfingers
     direction 1 -4.48886e-011 2.8104e-026   
     length 0.754955   
     axis -1.79203e-014 90 90   XYZ
    dof rx
    limits (0.0 90.0)
  end
  begin
     id 23
     name lthumb
     direction 0.707107 -6.34937e-011 0.707107   
     length 1.08397   
     axis -90 45 -4.48555e-014   XYZ
    dof rx rz
    limits (-45.0 45.0)
           (-45.0 45.0)
  end
  begin
     id 24 
     name rclavicle
     direction -0.947962 0.317997 0.0156638   
     length 4.86918  
     axis 0 -0 0   XYZ 
    dof ry rz
    limits (-10.0 20.0)
           (-20.0 0.0)
  end
  begin
     id 25 
     name rhumerus
     direction -1 -4.48951e-011 2.80534e-018  
     length 5.60911   
     axis 180 30 90   XYZ
    dof rx ry rz
    limits (-90.0 60.0)
           (-90.0 90.0)
           (-90.0 90.0)
  end
  begin
     id 26 
     name rradius
     direction -1 -4.4898e-011 2.11315e-027   
     length 3.38704   
     axis 180 30 90   XYZ
    dof rx
    limits (-10.0 170.0)
  end
  begin
     id 27 
     name rwrist
     direction -1 -4.48933e-011 7.02314e-027   
     length 1.69352   
     axis -4.37994e-015 -90 -90   XYZ
    dof ry
    limits (-180.0 0.0)
  end
  begin
     id 28
     name rhand
     direction -1 -4.48937e-011 1.40458e-026   
     length 0.755878   
     axis -8.96029e-015 -90 -90   XYZ
    dof rx rz
    limits (-90.0 90.0)
           (-45.0 45.0)
  end
  begin
     id 29
     name rfingers
     direction -1 -4.4901e-011 2.80737e-026   
     length 0.609409   
     axis -1.79203e-014 -90 -90   XYZ
    dof rx
    limits (0.0 90.0)
  end
  begin
     id 30
     name rthumb
     direction -0.707107 -6.34968e-011 0.707107   
     length 0.874992   
     axis -90 -45 4.48555e-014   XYZ
    dof rx rz
    limits (-45.0 45.0)
           (-45.0 45.0)
  end
:hierarchy
  begin
    root lhipjoint rhipjoint lowerback
    lhipjoint lfemur
    lfemur ltibia
    ltibia lfoot
    lfoot ltoes
    rhipjoint rfemur
    rfemur rtibia
    rtibia rfoot
    rfoot rtoes
    lowerback upperback
    upperback thorax
    thorax lowerneck lclavicle rclavicle
    lowerneck upperneck
    upperneck head
    lclavicle lhumerus
    lhumerus lradius
    lradius lwrist
    lwrist lhand lthumb
    lhand lfingers
    rclavicle rhumerus
    rhumerus rradius
    rradius rwrist
    rwrist rhand rthumb
    rhand rfingers
  end

#!OML:ASF C:\ViconDB\ViconDB\414\Spring2016\041811\Spring2016.ASF
:FULLY-SPECIFIED
:DEGREES
121
root 11.4032 18.1678 5.38987 -176.205 -6.44223 -177.917
lowerback -5.19362 0.885481 -1.13348
upperback 1.01674 1.2306 0.62745
thorax 3.92466 0.577241 1.38801
lowerneck -13.3357 2.27606 -5.49598
upperneck 24.8477 0.506412 10.752
head 9.99364 0.469931 4.74078
rclavicle 8.4732e-015 -2.98177e-015
rhumerus -45.6877 -1.24972 -90.3147
rradius 44.0231
rwrist 37.0951
rhand -33.2504 -12.015
rfingers 7.12502
rthumb -6.45596 -41.8966
lclavicle 8.4732e-015 -2.98177e-015
lhumerus -43.8096 -13.4097 95.1131
lradius 35.7124
lwrist -30.6677
lhand -25.3483 12.449
lfingers 7.12502
lthumb 1.17514 42.4256
rfemur 167.684 44.2334 -170.202
rtibia 26.011
rfoot -42.191 -43.9416
rtoes -21.3927
lfemur -8.3633 -6.12991 -19.8839
ltibia 25.7408
lfoot -23.731 5.79234
ltoes -10.6142
122
root 11.3774 18.1599 5.3817 -176.259 -6.37806 -178.028
lowerback -5.01523 0.899726 -1.13894
upperback 1.06609 1.25076 0.576347
thorax 3.87544 0.588132 1.33704
lowerneck -13.3705 2.24206 -5.50269
upperneck 24.739 0.507011 10.6812
head 9.96229 0.469617 4.71361
rclavicle 1.06847e-015 -4.96962e-015
rhumerus -46.4968 0.780247 -91.0237
rradius 45.8265
rwrist 35.9287
rhand -33.0946 -11.9823
rfingers 7.12502
rthumb -6.30557 -41.8684
lclavicle 1.06847e-015 -4.96962e-015
lhumerus -45.1923 -14.8871 95.4937
lradius 38.1648
lwrist -30.02
lhand -25.1229 12.307
lfingers 7.12502
lthumb 1.39288 42.2822
rfemur 167.434 42.6435 -170.635
rtibia 26.0084
rfoot -39.8047 -44.1878
rtoes -20.0959
lfemur -8.25652 -5.89854 -20.1093
ltibia 25.7376
lfoot -23.7191 5.68112
ltoes -10.8462
123
root 11.348 18.1526 5.37514 -176.339 -6.33047 -178.062
lowerback -4.77301 0.898978 -1.06462
upperback 1.09298 1.24278 0.574329
thorax 3.76835 0.586671 1.28808
lowerneck -13.3759 2.23959 -5.57992
upperneck 24.6493 0.561153 10.6278
head 9.92553 0.487928 4.71114
rclavicle -9.24349e-015 -4.37326e-015
rhumerus -47.4248 2.72148 -91.5847
rradius 47.7373
rwrist 35.1229
rhand -32.9561 -11.5984
rfingers 7.12502
rthumb -6.17185 -41.4885
lclavicle -9.24349e-015 -4.37326e-015
lhumerus -46.1894 -16.1148 95.8222
lradius 39.7924
lwrist -29.9074
lhand -24.8956 11.7321
lfingers 7.12502
lthumb 1.61239 41.7058
rfemur 167.154 41.0771 -170.998
rtibia 26.0313
rfoot -37.4119 -44.5234
rtoes -19.0181
lfemur -8.13009 -5.88137 -20.2708
ltibia 25.7103
lfoot -23.7127 5.71156
ltoes -10.8852
124
root 11.3218 18.1469 5.37088 -176.4 -6.30651 -178.205
lowerback -4.55039 0.892079 -1.0476
upperback 1.15839 1.23376 0.494983
thorax 3.71271 0.583743 1.19243
lowerneck -13.3724 2.18888 -5.57458
upperneck 24.4959 0.541192 10.5442
head 9.87327 0.47749 4.67232
rclavicle -3.19298e-015 -1.68967e-014
rhumerus -48.3722 4.55276 -92.2268
rradius 49.6904
rwrist 34.4531
rhand -33.1617 -11.4503
rfingers 7.12502
rthumb -6.37028 -41.3345
lclavicle -3.19298e-015 -1.68967e-014
lhumerus -47.6164 -17.7824 96.1893
lradius 42.0393
lwrist -29.8903
lhand -25.08 10.9929
lfingers 7.12502
lthumb 1.43434 40.9678
rfemur 166.869 39.2929 -171.452
rtibia 26.1163
rfoot -34.6761 -44.7226
rtoes -17.5867
lfemur -8.00468 -5.655 -20.5087
ltibia 25.6654
lfoot -23.6684 5.4701
ltoes -10.7914
125
root 11.2946 18.1403 5.3668 -176.517 -6.21825 -178.329
lowerback -4.2398 0.885206 -1.1057
upperback 1.24248 1.22403 0.509304
thorax 3.62317 0.577531 1.234
lowerneck -13.4549 2.17291 -5.68135
upperneck 24.376 0.617228 10.4293
head 9.83922 0.503222 4.65672
rclavicle 6.05051e-015 -4.37326e-015
rhumerus -49.3152 6.29515 -92.5676
rradius 51.6217
rwrist 34.3454
rhand -33.2299 -10.9252
rfingers 7.12502
rthumb -6.43618 -40.8074
lclavicle 6.05051e-015 -4.37326e-015
lhumerus -49.0544 -19.2768 96.6725
lradius 44.4695
lwrist -29.1945
lhand -25.2019 10.5061
lfingers 7.12502
lthumb 1.31658 40.4818
rfemur 166.547 37.1275 -171.889
rtibia 26.2501
rfoot -31.532 -44.8638
rtoes -16.4289
lfemur -7.82357 -5.35565 -20.7345
ltibia 25.6208
lfoot -23.6304 5.22503
ltoes -10.6234
126
root 11.2705 18.1327 5.36354 -176.61 -6.16852 -178.48
lowerback -3.94708 0.920741 -1.09629
upperback 1.30767 1.27246 0.373334
thorax 3.52717 0.603734 1.08709
lowerneck -13.3979 2.10987 -5.48876
upperneck 24.1735 0.552458 10.2711
head 9.76673 0.47968 4.5505
rclavicle 8.57259e-016 1.07344e-014
rhumerus -50.3569 7.73529 -93.0951
rradius 53.6104
rwrist 34.4118
rhand -33.4982 -10.5476
rfingers 7.12502
rthumb -6.69517 -40.4217
lclavicle 8.57259e-016 1.07344e-014
lhumerus -50.5812 -20.815 96.8765
lradius 46.958
lwrist -29.2104
lhand -25.2235 10.0424
lfingers 7.12502
lthumb 1.29571 40.0182
rfemur 166.217 34.868 -172.3
rtibia 26.5022
rfoot -28.197 -45.1207
rtoes -15.4027
lfemur -7.66239 -5.27203 -20.9903
ltibia 25.5361
lfoot -23.5962 5.13581
ltoes -10.5729
127
root 11.2444 18.1241 5.36553 -176.743 -6.16889 -178.644
lowerback -3.3846 0.870833 -1.02711
upperback 1.26089 1.20045 0.22495
thorax 3.16792 0.573743 0.879721
lowerneck -13.3075 2.14369 -5.43053
upperneck 24.0966 0.585014 10.28
head 9.71945 0.498532 4.54193
rclavicle 3.44146e-015 1.78906e-015
rhumerus -51.6689 9.39261 -93.7311
rradius 55.7428
rwrist 34.1952
rhand -33.7872 -10.5934
rfingers 7.12502
rthumb -6.97419 -40.4585
lclavicle 3.44146e-015 1.78906e-015
lhumerus -52.1769 -22.0969 96.9737
lradius 49.3459
lwrist -29.2376
lhand -25.3321 9.26348
lfingers 7.12502
lthumb 1.19085 39.2399
rfemur 165.782 32.5905 -172.726
rtibia 26.8831
rfoot -24.752 -45.3763
rtoes -15.1089
lfemur -7.46902 -5.1432 -21.26
ltibia 25.434
lfoot -23.5351 4.99484
ltoes -10.5232
128
root 11.2207 18.1163 5.36468 -176.889 -6.10714 -178.892
lowerback -3.15248 0.882829 -1.37282
upperback 1.45367 1.22474 0.321037
thorax 3.22639 0.575083 1.17154
lowerneck -13.4258 2.09043 -5.72416
upperneck 23.9706 0.636933 10.2531
head 9.6899 0.508663 4.58878
rclavicle -2.34069e-014 8.94531e-015
rhumerus -52.7348 10.9931 -93.7821
rradius 57.84
rwrist 34.2828
rhand -34.3003 -10.284
rfingers 7.12502
rthumb -7.46946 -40.1321
lclavicle -2.34069e-014 8.94531e-015
lhumerus -53.531 -23.1639 97.3363
lradius 51.8191
lwrist -29.6203
lhand -25.5169 8.70524
lfingers 7.12502
lthumb 1.01235 38.6826
rfemur 165.262 30.2591 -173.225
rtibia 27.4266
rfoot -21.2955 -45.7635
rtoes -13.9795
lfemur -7.24462 -4.74219 -21.607
ltibia 25.3297
lfoot -23.4201 4.68814
ltoes -10.5717
129
root 11.1955 18.1066 5.36525 -177.013 -6.06248 -179.23
lowerback -2.78037 0.901381 -1.59084
upperback 1.56223 1.25445 0.196035
thorax 3.12593 0.58565 1.16093
lowerneck -13.445 2.0098 -5.52867
upperneck 23.8253 0.584461 9.95807
head 9.65276 0.479437 4.43948
rclavicle -2.62396e-014 5.96354e-015
rhumerus -53.9007 12.4142 -94.0987
rradius 59.9069
rwrist 34.4654
rhand -34.621 -9.40355
rfingers 7.12502
rthumb -7.77896 -39.2405
lclavicle -2.62396e-014 5.96354e-015
lhumerus -55.0102 -24.6158 97.4637
lradius 54.1877
lwrist -30.2257
lhand -25.7165 7.99778
lfingers 7.12502
lthumb 0.819547 37.976
rfemur 164.686 27.9649 -173.788
rtibia 28.1462
rfoot -17.727 -46.1781
rtoes -13.7692
lfemur -7.05239 -4.45804 -22.0726
ltibia 25.2313
lfoot -23.3085 4.48117
ltoes -10.5987
130
root 11.1707 18.0975 5.37182 -177.129 -6.07336 -179.477
lowerback -2.28435 0.947185 -1.61556
upperback 1.51635 1.31064 -0.00816249
thorax 2.80142 0.617826 0.957598
lowerneck -13.1347 1.98106 -5.32463
upperneck 23.6629 0.471391 9.99295
head 9.54827 0.437369 4.39019
rclavicle -5.20567e-015 -5.36719e-015
rhumerus -55.3231 13.5338 -94.6105
rradius 61.8155
rwrist 34.3631
rhand -35.3679 -8.73661
rfingers 7.12502
rthumb -8.49985 -38.5455
lclavicle -5.20567e-015 -5.36719e-015
lhumerus -56.8039 -26.1317 97.544
lradius 56.4793
lwrist -31.0104
lhand -26.2497 6.95701
lfingers 7.12502
lthumb 0.304555 36.9365
rfemur 164.066 25.8527 -174.192
rtibia 29.0586
rfoot -14.0972 -46.8571
rtoes -13.1544
lfemur -6.8938 -4.31044 -22.4263
ltibia 25.139
lfoot -23.223 4.29995
ltoes -10.5595
